<svg width="72" height="72" viewBox="0 0 72 72" fill="none" xmlns="http://www.w3.org/2000/svg">
<rect width="72" height="72" rx="36" fill="#49638A"/>
<path d="M43.8768 48.9375L46.7869 52.9211C47.0601 53.3536 47.585 53.5466 48.0643 53.3754C49.8728 52.7294 54.3555 50.9787 58.0464 48.3131C58.3342 48.1052 58.5004 47.7587 58.4982 47.4014C58.4982 27.5625 52.8768 21.9375 52.8768 21.9375C52.8768 21.9375 48.3768 19.3548 43.5481 18.576C43.0731 18.4994 42.6078 18.7539 42.3965 19.19L41.3953 21.2552C41.3953 21.2552 38.8919 20.7314 36 20.7314C33.1081 20.7314 30.6047 21.2552 30.6047 21.2552L29.6035 19.19C29.3921 18.7539 28.927 18.4994 28.4519 18.576C23.6268 19.3542 19.1268 21.9375 19.1268 21.9375C19.1268 21.9375 13.5018 27.5625 13.5018 47.4014C13.4995 47.7587 13.6657 48.1052 13.9536 48.3131C17.6444 50.9787 22.1272 52.7294 23.9356 53.3754C24.4149 53.5466 24.9398 53.3536 25.2131 52.9211L28.1268 48.9375" fill="white"/>
<path d="M48.3768 46.6875C48.3768 46.6875 43.2128 50.0625 36.0018 50.0625C28.7907 50.0625 23.6268 46.6875 23.6268 46.6875" stroke="#49638A" stroke-width="1.5" stroke-linecap="round" stroke-linejoin="round"/>
<path d="M47.8143 36.5625C47.8143 39.0478 46.0514 41.0625 43.8768 41.0625C41.7022 41.0625 39.9393 39.0478 39.9393 36.5625C39.9393 34.0772 41.7022 32.0625 43.8768 32.0625C46.0514 32.0625 47.8143 34.0772 47.8143 36.5625Z" fill="#49638A"/>
<path d="M32.0643 36.5625C32.0643 39.0478 30.3014 41.0625 28.1268 41.0625C25.9522 41.0625 24.1893 39.0478 24.1893 36.5625C24.1893 34.0772 25.9522 32.0625 28.1268 32.0625C30.3014 32.0625 32.0643 34.0772 32.0643 36.5625Z" fill="#49638A"/>
</svg>
