<svg width="72" height="72" viewBox="0 0 72 72" fill="none" xmlns="http://www.w3.org/2000/svg">
<rect width="72" height="72" rx="36" fill="#49638A"/>
<path d="M35.9672 43.6687L43.2603 51.9606C45.9623 55.0325 47.3135 56.5686 48.7276 56.1946C50.1417 55.8207 50.6268 53.7993 51.5966 49.756L56.9765 27.3283C58.4703 21.1012 59.2171 17.9877 57.5568 16.452C55.8968 14.9163 53.019 16.0588 47.2637 18.3438L20.5622 28.9451C15.9591 30.7727 13.6575 31.6865 13.5114 33.2568C13.4964 33.4174 13.4962 33.5792 13.5107 33.7399C13.652 35.3108 15.9507 36.2324 20.5482 38.0752C22.6314 38.9101 23.6729 39.3277 24.4197 40.1274C24.5037 40.2172 24.5844 40.3103 24.6618 40.4064C25.3498 41.2614 25.6435 42.3835 26.2307 44.6274L27.3297 48.8272C27.9011 51.0109 28.1869 52.1028 28.9352 52.2517C29.6835 52.4005 30.3351 51.4951 31.6382 49.6843L35.9672 43.6687ZM35.9672 43.6687L35.2521 42.9235C34.4383 42.0752 34.0315 41.6513 34.0315 41.1244C34.0315 40.5974 34.4383 40.1733 35.2521 39.325L43.2914 30.9467" stroke="white" stroke-width="1.5" stroke-linecap="round" stroke-linejoin="round"/>
</svg>
