<svg width="54" height="55" viewBox="0 0 54 55" fill="none" xmlns="http://www.w3.org/2000/svg">
<g id="telegram">
<path id="Vector" d="M26.9672 35.1687L34.2603 43.4606C36.9623 46.5325 38.3135 48.0686 39.7276 47.6946C41.1417 47.3207 41.6268 45.2993 42.5966 41.256L47.9765 18.8283C49.4703 12.6012 50.2171 9.48771 48.5568 7.952C46.8968 6.4163 44.019 7.55881 38.2637 9.84384L11.5622 20.4451C6.9591 22.2727 4.65753 23.1865 4.51141 24.7568C4.49645 24.9174 4.4962 25.0792 4.51067 25.2399C4.65197 26.8108 6.95073 27.7324 11.5482 29.5752C13.6314 30.4101 14.6729 30.8277 15.4197 31.6274C15.5037 31.7172 15.5844 31.8103 15.6618 31.9064C16.3498 32.7614 16.6435 33.8835 17.2307 36.1274L18.3297 40.3272C18.9011 42.5109 19.1869 43.6028 19.9352 43.7517C20.6835 43.9005 21.3351 42.9951 22.6382 41.1843L26.9672 35.1687ZM26.9672 35.1687L26.2521 34.4235C25.4383 33.5752 25.0315 33.1513 25.0315 32.6244C25.0315 32.0974 25.4383 31.6733 26.2521 30.825L34.2914 22.4467" stroke="white" stroke-width="3" stroke-linecap="round" stroke-linejoin="round"/>
</g>
</svg>
